<?xml version="1.0" standalone="no"?>
<!DOCTYPE svg PUBLIC "-//W3C//DTD SVG 20010904//EN"
 "http://www.w3.org/TR/2001/REC-SVG-20010904/DTD/svg10.dtd">
<svg version="1.0" xmlns="http://www.w3.org/2000/svg"
 width="600.000000pt" height="200.000000pt" viewBox="0 0 600.000000 200.000000"
 preserveAspectRatio="xMidYMid meet">

<g transform="translate(0.000000,200.000000) scale(0.100000,-0.100000)"
fill="#000000" stroke="none">
<path d="M3960 1874 c0 -12 -83 -64 -102 -64 -7 0 -32 -18 -55 -39 -61 -59
-111 -80 -187 -82 -36 -1 -63 -5 -61 -9 3 -5 -1 -11 -7 -13 -14 -6 49 -10 95
-7 15 1 33 -3 40 -8 17 -13 178 -32 276 -32 49 0 116 8 165 20 52 13 103 19
141 17 70 -5 90 5 73 37 -15 28 -28 36 -61 36 -20 0 -41 13 -70 43 -71 73
-111 98 -154 97 -21 -1 -50 2 -65 6 -16 3 -28 2 -28 -2z"/>
<path d="M972 1774 c-16 -11 -20 -19 -13 -28 6 -7 9 -39 7 -72 -3 -70 6 -94
39 -94 43 0 55 9 45 35 -5 13 -12 52 -16 87 -6 59 -17 88 -33 88 -4 0 -17 -7
-29 -16z"/>
<path d="M2337 1724 c-3 -10 -7 -35 -9 -54 -3 -32 -1 -35 25 -34 15 1 27 -2
27 -7 0 -4 7 -14 15 -23 14 -13 13 -16 -5 -26 -27 -14 -25 -37 2 -46 13 -4 28
-14 35 -23 9 -13 17 -14 40 -5 26 10 29 9 31 -10 0 -11 11 -28 24 -38 26 -20
141 -68 163 -68 43 0 20 52 -58 129 -46 45 -59 53 -80 47 -23 -5 -25 -4 -21
20 3 16 1 23 -6 19 -5 -3 -10 -2 -10 3 0 5 -10 22 -22 37 -19 24 -23 25 -33
12 -8 -12 -19 -13 -45 -7 -21 5 -27 9 -15 10 18 1 18 2 -3 11 -13 5 -21 12
-18 17 2 4 -4 18 -14 31 -16 23 -18 23 -23 5z m147 -90 c4 -9 4 -19 1 -22 -3
-3 -5 1 -5 9 0 11 -2 11 -10 -1 -8 -12 -10 -11 -10 8 0 26 15 29 24 6z m-19
-54 c3 -5 -1 -10 -9 -10 -8 0 -18 5 -21 10 -3 6 1 10 9 10 8 0 18 -4 21 -10z
m-55 -20 c-12 -8 -12 -10 -1 -10 8 0 12 -2 9 -5 -3 -3 -13 -3 -22 1 -19 7 -11
24 12 24 15 0 15 -2 2 -10z m144 -12 c-5 -8 -2 -9 11 -5 14 6 16 3 12 -13 -4
-17 -3 -19 9 -9 17 14 46 -5 38 -26 -3 -8 1 -12 13 -12 12 1 17 -4 17 -16 -1
-10 1 -16 4 -13 10 10 32 -16 31 -38 0 -11 -3 -16 -5 -9 -3 7 -12 9 -20 6 -24
-9 -96 28 -89 45 4 11 2 12 -8 4 -10 -9 -19 -8 -35 4 -26 18 -28 50 -5 76 18
20 38 25 27 6z m-79 -17 c3 -5 1 -13 -5 -16 -15 -9 -43 3 -35 15 8 13 32 13
40 1z"/>
<path d="M2590 1489 c0 -5 5 -7 10 -4 6 3 10 8 10 11 0 2 -4 4 -10 4 -5 0 -10
-5 -10 -11z"/>
<path d="M2530 1479 c0 -5 5 -7 10 -4 6 3 10 8 10 11 0 2 -4 4 -10 4 -5 0 -10
-5 -10 -11z"/>
<path d="M2606 1447 c3 -10 9 -15 12 -12 3 3 0 11 -7 18 -10 9 -11 8 -5 -6z"/>
<path d="M678 1673 c7 -3 16 -2 19 1 4 3 -2 6 -13 5 -11 0 -14 -3 -6 -6z"/>
<path d="M645 1659 c-4 -6 -13 -8 -21 -5 -11 4 -12 2 -1 -14 9 -16 9 -24 -1
-41 -12 -18 -11 -20 5 -17 10 2 17 10 15 17 -2 8 7 25 20 40 23 26 23 26 1 7
-24 -20 -32 -9 -11 12 7 7 9 12 6 12 -4 0 -10 -5 -13 -11z"/>
<path d="M5160 1660 c0 -5 6 -10 14 -10 20 0 68 -137 56 -160 -24 -45 7 -95
35 -57 16 22 75 23 75 2 0 -22 37 -18 43 5 5 19 0 20 -76 20 l-82 1 24 19 c16
14 38 20 75 20 28 0 56 4 63 8 6 4 13 30 15 57 l3 50 -97 3 c-77 2 -98 6 -98
17 0 8 -9 19 -19 25 -25 13 -31 13 -31 0z m110 -70 c0 -5 -4 -10 -10 -10 -5 0
-10 5 -10 10 0 6 5 10 10 10 6 0 10 -4 10 -10z m30 0 c0 -5 -4 -10 -10 -10 -5
0 -10 5 -10 10 0 6 5 10 10 10 6 0 10 -4 10 -10z m30 0 c0 -5 -4 -10 -10 -10
-5 0 -10 5 -10 10 0 6 5 10 10 10 6 0 10 -4 10 -10z m-60 -70 c0 -5 -2 -10 -4
-10 -3 0 -8 5 -11 10 -3 6 -1 10 4 10 6 0 11 -4 11 -10z m30 6 c0 -3 -4 -8
-10 -11 -5 -3 -10 -1 -10 4 0 6 5 11 10 11 6 0 10 -2 10 -4z m70 -86 c0 -5 -5
-10 -11 -10 -5 0 -7 5 -4 10 3 6 8 10 11 10 2 0 4 -4 4 -10z"/>
<path d="M681 1637 c-13 -21 -12 -21 5 -5 10 10 16 20 13 22 -3 3 -11 -5 -18
-17z"/>
<path d="M2520 1635 c-11 -13 -10 -14 5 -9 15 6 17 3 13 -19 -3 -15 -1 -24 3
-21 12 7 11 51 0 58 -5 3 -14 -1 -21 -9z"/>
<path d="M3337 1642 c-22 -3 -32 -12 -43 -37 -16 -39 -18 -81 -5 -90 6 -3 6
-16 0 -33 -5 -15 -5 -40 -1 -57 7 -26 14 -30 46 -33 25 -2 44 2 56 13 16 14
18 14 23 0 9 -23 93 -21 102 3 6 16 7 16 16 0 7 -13 22 -18 49 -18 36 0 41 4
54 33 9 21 10 38 4 50 -6 13 -6 29 2 48 14 33 5 74 -11 49 -6 -10 -7 -5 -3 17
11 58 -3 65 -140 61 -67 -1 -134 -4 -149 -6z m43 -22 c0 -5 9 -10 19 -10 11 0
23 5 26 10 3 6 22 10 41 10 19 0 34 -4 34 -10 0 -5 11 -10 25 -10 14 0 25 5
25 10 0 6 9 10 20 10 13 0 20 -7 20 -20 0 -19 -7 -20 -128 -20 -121 0 -128 1
-128 20 0 14 7 20 23 20 13 0 23 -4 23 -10z m-63 -22 c-3 -8 -6 -5 -6 6 -1 11
2 17 5 13 3 -3 4 -12 1 -19z m67 -63 c-4 -10 -10 -12 -18 -6 -6 5 -20 11 -31
14 -12 3 -4 5 17 6 30 1 36 -2 32 -14z m130 0 c-7 -18 -9 -18 -34 -3 -16 10
-24 10 -39 1 -15 -10 -20 -9 -25 2 -4 12 6 15 49 15 44 0 53 -3 49 -15z m86 8
c-14 -3 -29 -9 -34 -14 -14 -13 -23 -11 -30 6 -4 12 4 15 42 14 27 -1 36 -4
22 -6z m-236 -35 c23 -33 20 -38 -24 -38 -33 0 -38 3 -33 18 8 23 23 42 34 42
4 0 15 -10 23 -22z m120 6 c28 -28 20 -44 -24 -44 -44 0 -47 5 -24 38 18 26
27 27 48 6z m112 8 c6 -4 16 -17 23 -29 11 -22 10 -23 -29 -23 -41 0 -47 8
-30 41 11 20 19 23 36 11z m-266 -86 c0 -2 -7 -9 -15 -16 -12 -10 -15 -10 -15
4 0 9 7 16 15 16 8 0 15 -2 15 -4z m130 -4 c0 -5 7 -9 15 -9 8 0 15 4 15 9 0
13 85 9 98 -4 18 -18 15 -28 -8 -28 -12 0 -20 7 -20 18 0 14 -2 15 -10 2 -6
-10 -10 -11 -10 -2 0 17 -39 15 -46 -3 -4 -9 -19 -15 -35 -15 -29 0 -39 14
-16 24 6 3 -7 4 -30 4 -25 -1 -44 -7 -47 -15 -6 -14 -36 -18 -36 -5 0 20 28
32 77 32 29 0 53 -4 53 -8z m164 -7 c-4 -8 -7 -15 -9 -15 -2 0 -5 7 -9 15 -3
9 0 15 9 15 9 0 12 -6 9 -15z"/>
<path d="M1585 1620 c-3 -5 -1 -10 4 -10 6 0 11 5 11 10 0 6 -2 10 -4 10 -3 0
-8 -4 -11 -10z"/>
<path d="M5708 1601 l-31 -28 22 -36 c18 -30 29 -37 68 -43 33 -5 54 -3 72 8
23 12 26 19 23 58 -4 55 -22 70 -79 70 -33 0 -50 -7 -75 -29z"/>
<path d="M536 1599 c-14 -11 -26 -28 -25 -37 0 -14 2 -14 6 -2 3 8 17 25 31
37 34 29 24 30 -12 2z"/>
<path d="M728 1592 c36 -34 39 -56 17 -109 -26 -63 -40 -72 -106 -72 -37 1
-57 4 -53 11 3 5 -4 20 -16 33 -27 29 -38 98 -19 122 13 17 12 17 -4 4 -19
-15 -20 -70 -3 -116 8 -20 7 -20 -8 -1 -9 11 -17 29 -17 40 -1 16 -2 17 -6 4
-5 -20 18 -66 46 -92 26 -23 103 -28 142 -9 28 13 69 85 69 121 0 34 -20 69
-48 81 -23 11 -23 10 6 -17z m-152 -169 c-7 -7 -26 7 -26 19 0 6 6 6 15 -2 9
-7 13 -15 11 -17z"/>
<path d="M4343 1566 c-24 -24 -43 -50 -43 -59 0 -21 76 -80 91 -71 8 4 9 3 5
-4 -4 -7 -1 -12 8 -12 8 0 13 6 10 13 -6 16 69 15 109 -1 38 -16 77 -15 77 1
0 8 10 13 23 13 20 -1 22 4 22 44 0 59 -11 83 -32 71 -9 -5 -24 -5 -32 -1 -50
26 -128 50 -160 50 -29 -1 -44 -9 -78 -44z m90 27 c-7 -2 -21 -2 -30 0 -10 3
-4 5 12 5 17 0 24 -2 18 -5z m89 -50 c29 -16 48 -32 46 -41 -8 -38 -185 -58
-233 -26 -30 19 -31 35 -7 57 16 15 19 15 31 -5 12 -19 11 -23 -3 -34 -11 -8
-13 -14 -7 -19 6 -3 14 1 18 10 5 16 7 16 15 1 11 -19 31 -20 60 -5 17 9 18
13 7 20 -8 5 -25 9 -39 9 -26 0 -55 33 -45 50 13 21 106 11 157 -17z m105 -3
c1 -11 -2 -20 -7 -20 -6 0 -7 17 -1 38 3 8 7 -1 8 -18z m-197 -44 c0 -3 -4 -8
-10 -11 -5 -3 -10 -1 -10 4 0 6 5 11 10 11 6 0 10 -2 10 -4z m205 -25 c3 -5 2
-12 -3 -15 -5 -3 -9 1 -9 9 0 17 3 19 12 6z m-50 -31 c-3 -5 -11 -10 -16 -10
-6 0 -7 5 -4 10 3 6 11 10 16 10 6 0 7 -4 4 -10z"/>
<path d="M5432 1559 c-38 -35 -19 -65 33 -54 11 2 24 4 28 4 5 1 7 15 5 33 -4
39 -35 47 -66 17z"/>
<path d="M1591 1474 c0 -11 3 -14 6 -6 3 7 2 16 -1 19 -3 4 -6 -2 -5 -13z"/>
<path d="M2730 1206 l-15 -31 -97 -3 c-97 -3 -98 -3 -98 -27 0 -14 5 -25 10
-25 6 0 10 7 10 15 0 12 18 15 98 15 103 0 122 7 122 45 0 38 -14 44 -30 11z"/>
<path d="M4130 1096 c0 -91 4 -146 10 -146 6 0 10 53 10 139 0 83 -4 142 -10
146 -6 4 -10 -45 -10 -139z"/>
<path d="M4550 1069 c0 -190 -2 -199 -54 -199 -16 0 -26 -3 -23 -6 8 -9 -29
-56 -56 -71 -21 -11 -245 -9 -304 3 -32 6 -95 64 -89 81 3 8 2 11 -4 8 -5 -3
-17 6 -26 20 -24 36 -50 32 -73 -13 -25 -48 -60 -72 -106 -72 -50 0 -72 14
-96 63 -25 49 -35 57 -70 57 -36 0 -57 -25 -41 -51 18 -29 15 -46 -17 -80 -27
-28 -47 -35 -113 -38 -20 -1 -25 -27 -6 -33 12 -4 -59 -41 -79 -41 -7 0 -13
-11 -13 -24 0 -28 -41 -73 -67 -73 -10 0 -30 7 -43 16 l-25 16 25 -24 c14 -13
26 -32 28 -43 5 -30 31 -65 48 -65 28 0 64 -47 64 -84 0 -72 48 -87 301 -91
75 -2 152 -8 172 -14 64 -21 294 -15 374 10 23 7 46 6 90 -6 145 -39 307 -28
366 24 25 23 30 35 29 67 -2 35 3 43 46 79 26 22 64 49 85 60 45 24 53 48 33
97 -20 46 -7 81 35 99 23 9 36 9 59 -1 28 -12 33 -10 56 11 31 29 27 70 -11
109 -18 19 -25 37 -25 67 0 23 -4 45 -10 48 -5 3 -10 14 -10 24 0 9 -6 26 -14
36 -13 18 -14 15 -9 -25 5 -59 -22 -104 -80 -130 -50 -23 -78 -24 -131 -5 -53
19 -32 -3 43 -43 l54 -30 -31 -7 c-40 -8 -99 12 -135 47 -38 38 -87 71 -88 61
-4 -21 -20 104 -27 204 -4 67 -12 117 -19 125 -10 10 -13 -23 -13 -163z m-556
-333 c40 -17 52 -46 36 -86 -17 -41 -59 -56 -99 -35 -60 30 -65 102 -9 125 31
12 34 12 72 -4z m381 -11 c14 -13 25 -34 25 -45 0 -28 -52 -80 -79 -80 -59 0
-83 91 -35 129 35 27 59 26 89 -4z m338 -3 c58 -51 -32 -151 -97 -108 -50 32
-46 98 7 121 35 15 62 11 90 -13z m-983 -2 c27 -27 25 -66 -5 -95 -15 -15 -19
-25 -11 -25 16 0 43 -39 46 -66 9 -78 -10 -96 -101 -95 -67 0 -118 24 -121 56
-5 68 -4 80 6 91 19 19 56 35 66 29 5 -3 2 8 -6 24 -17 33 -7 73 23 90 30 17
81 13 103 -9z"/>
<path d="M5482 1215 c-11 -23 -17 -25 -77 -25 l-65 0 0 -148 c0 -157 -4 -172
-47 -172 -28 0 -29 -4 -2 -31 16 -16 30 -20 61 -17 33 3 39 1 35 -14 -3 -9 1
-22 9 -29 8 -6 14 -18 14 -25 0 -8 6 -14 14 -14 7 0 25 -11 40 -25 25 -23 64
-30 77 -12 7 10 39 -2 39 -15 0 -6 29 15 64 46 35 31 68 56 74 56 23 0 46 56
44 108 -4 99 -58 120 -226 87 -76 -14 -135 -40 -137 -60 -2 -28 -28 123 -30
177 l-3 63 70 5 c63 5 69 7 72 29 5 35 -12 46 -26 16z"/>
<path d="M3600 1127 c-62 -97 -65 -104 -70 -177 l-5 -75 -32 -3 c-18 -2 -33
-6 -33 -10 1 -18 53 -43 83 -40 l32 3 5 80 c4 63 10 88 31 120 45 70 44 68 18
55 l-23 -13 19 29 c10 16 30 46 43 67 22 33 23 40 11 51 -12 12 -24 -1 -79
-87z"/>
<path d="M3441 1183 c25 -43 39 -60 39 -50 0 9 -51 87 -57 87 -3 0 5 -17 18
-37z"/>
<path d="M798 1176 l-26 -31 -36 18 c-54 25 -90 22 -128 -12 -28 -25 -33 -36
-33 -75 0 -34 6 -51 23 -68 l23 -23 -12 27 c-16 38 -4 93 28 118 30 24 82 26
123 5 34 -18 53 -12 75 22 14 21 15 27 3 38 -10 10 -18 6 -40 -19z"/>
<path d="M2272 1180 c-26 -34 -36 -36 -81 -14 -44 22 -93 11 -125 -27 -29 -34
-35 -93 -13 -124 13 -16 14 -15 9 14 -13 92 81 151 169 105 24 -12 33 -13 45
-3 24 20 36 48 26 64 -6 13 -12 10 -30 -15z"/>
<path d="M4937 1185 c-21 -29 -35 -31 -75 -8 -16 9 -36 14 -46 10 -22 -9 -31
-36 -17 -50 10 -9 15 -8 22 6 6 9 18 17 29 17 10 0 32 -8 50 -17 31 -18 31
-18 56 11 24 27 27 47 8 53 -5 1 -17 -9 -27 -22z"/>
<path d="M1287 1148 c4 -37 1 -56 -16 -88 l-21 -41 20 -46 c27 -61 26 -81 -7
-95 -39 -17 -38 -16 -18 -38 20 -22 46 -25 76 -10 26 14 24 30 -12 102 -30 60
-31 62 -15 95 20 41 20 110 1 143 -14 24 -14 23 -8 -22z"/>
<path d="M3175 1126 c0 -46 -5 -69 -17 -82 -15 -18 -15 -23 8 -78 24 -55 24
-59 8 -77 -9 -10 -23 -19 -30 -19 -25 0 -23 -18 4 -35 15 -10 24 -14 20 -10
-4 4 4 16 17 27 30 24 31 33 5 94 l-20 47 20 42 c11 23 20 51 20 63 0 21 -25
92 -32 92 -2 0 -3 -29 -3 -64z"/>
<path d="M5135 1180 c3 -5 28 -10 56 -10 27 0 49 5 49 10 0 6 -25 10 -56 10
-34 0 -53 -4 -49 -10z"/>
<path d="M1575 1171 c-54 -23 -79 -95 -51 -149 9 -18 18 -32 19 -32 1 0 0 22
-1 50 -4 45 -1 53 27 81 27 27 37 30 72 27 41 -4 41 -4 19 14 -24 19 -52 22
-85 9z"/>
<path d="M1070 1126 c0 -34 4 -46 15 -46 11 0 15 11 15 36 0 36 0 36 40 32 25
-2 39 0 37 7 -2 5 -27 11 -55 13 l-52 3 0 -45z"/>
<path d="M1801 1142 c6 -18 9 -59 7 -92 -10 -133 -134 -219 -256 -177 -39 13
-41 13 -30 -1 7 -8 32 -24 55 -34 40 -18 45 -18 93 -2 70 23 111 52 137 99 40
71 39 167 -2 220 -14 18 -14 17 -4 -13z"/>
<path d="M2970 1125 c0 -25 5 -45 10 -45 6 0 10 16 10 35 0 34 1 35 41 35 24
0 38 4 34 10 -3 6 -26 10 -51 10 l-44 0 0 -45z"/>
<path d="M828 998 c-3 -81 -4 -83 -36 -105 -47 -31 -111 -39 -169 -20 -26 9
-49 14 -51 12 -3 -2 17 -18 44 -34 45 -29 113 -43 99 -21 -4 6 5 10 20 10 36
0 92 27 110 54 15 21 21 138 9 170 -14 36 -23 11 -26 -66z"/>
<path d="M2674 1058 c-10 -33 -22 -38 -91 -38 -60 0 -63 -1 -63 -25 0 -14 5
-25 10 -25 6 0 10 7 10 15 0 12 14 15 68 15 73 0 92 10 92 46 0 32 -17 39 -26
12z"/>
<path d="M4765 1038 c20 -15 79 -38 96 -38 5 0 9 4 9 9 0 5 -20 14 -44 20 -24
6 -52 14 -62 17 -17 6 -17 5 1 -8z"/>
<path d="M694 1015 c25 -19 36 -19 36 0 0 10 -10 15 -27 15 -27 -1 -27 -1 -9
-15z"/>
<path d="M166 994 c-15 -7 -45 -16 -68 -19 -23 -4 -55 -16 -70 -26 l-28 -20 0
-299 c0 -223 3 -299 12 -302 7 -3 44 2 82 9 39 8 79 15 89 17 30 4 35 23 36
134 1 57 7 114 13 126 18 35 51 67 86 81 35 15 37 22 22 76 -13 47 0 83 36
101 41 19 40 34 -4 78 -33 33 -47 40 -78 40 -22 0 -53 4 -71 9 -22 6 -39 5
-57 -5z"/>
<path d="M1068 928 c-3 -50 -5 -53 -32 -58 -26 -4 -27 -7 -13 -18 17 -15 56
-8 69 12 4 6 8 28 8 49 0 34 2 37 30 37 20 0 30 5 30 15 0 11 -12 15 -44 15
l-45 0 -3 -52z"/>
<path d="M2970 938 c0 -50 -13 -68 -49 -68 -42 0 -3 -28 44 -32 33 -2 40 0 43
17 4 20 4 20 -11 0 -9 -11 -19 -17 -23 -12 -4 4 -2 7 4 7 8 0 12 19 12 50 l0
50 36 0 c51 0 39 24 -14 28 l-42 3 0 -43z"/>
<path d="M2278 930 c-7 -55 -142 -85 -216 -48 -18 9 -30 12 -26 7 13 -22 86
-49 131 -49 54 0 136 35 141 60 1 9 -4 24 -12 35 -14 19 -14 19 -18 -5z"/>
<path d="M2733 900 l-11 -30 -138 0 c-127 0 -137 -1 -122 -16 13 -13 37 -16
138 -15 66 1 128 5 136 8 18 7 28 47 17 67 -7 13 -11 10 -20 -14z"/>
<path d="M4316 896 l-6 -26 -132 0 -131 0 26 -25 c24 -25 28 -26 153 -23 l129
3 3 27 c2 17 -4 36 -16 48 l-20 21 -6 -25z"/>
<path d="M557 823 c-4 -3 -7 -19 -7 -34 0 -17 -8 -32 -25 -43 -14 -9 -25 -23
-25 -31 0 -8 -3 -14 -7 -14 -85 14 -51 -72 37 -96 94 -25 112 -37 136 -91 29
-65 73 -93 100 -63 9 10 32 22 51 25 45 8 49 23 29 89 -13 38 -27 61 -51 80
l-34 26 -13 -22 c-17 -28 -84 -62 -108 -54 -25 8 -60 57 -60 84 0 30 44 71 75
71 35 0 31 10 -20 48 -43 31 -65 39 -78 25z"/>
<path d="M2508 823 c6 -2 18 -2 25 0 6 3 1 5 -13 5 -14 0 -19 -2 -12 -5z"/>
<path d="M1343 776 c3 -8 1 -17 -6 -20 -7 -2 -2 -5 11 -5 13 -1 33 -6 45 -12
19 -8 20 -8 7 3 -9 7 -14 21 -12 31 3 13 -3 17 -23 17 -20 0 -26 -4 -22 -14z"/>
<path d="M5380 760 c0 -5 5 -10 11 -10 5 0 7 5 4 10 -3 6 -8 10 -11 10 -2 0
-4 -4 -4 -10z"/>
<path d="M2419 712 c-10 -7 -22 -11 -27 -9 -4 3 -7 -10 -7 -28 0 -18 3 -31 8
-28 4 2 7 13 7 24 0 22 8 24 24 5 13 -16 100 -10 89 7 -3 6 -1 7 6 3 6 -4 9
-12 5 -17 -7 -13 15 -41 27 -33 5 3 9 1 9 -4 0 -5 13 -12 29 -14 26 -4 29 -2
20 13 -5 10 -10 29 -11 43 -1 14 -7 22 -12 18 -22 -13 -45 -8 -57 14 -9 18
-20 23 -51 21 -22 -1 -48 -7 -59 -15z"/>
<path d="M5805 673 c-38 -41 -40 -53 -25 -134 14 -73 27 -80 130 -77 l85 3 0
109 0 109 -45 13 c-78 23 -107 19 -145 -23z"/>
<path d="M410 339 c-19 -10 -43 -19 -53 -19 -24 0 -33 -28 -16 -46 8 -7 42
-17 75 -20 47 -5 69 -3 98 11 46 22 53 38 32 70 -13 20 -24 25 -59 24 -23 0
-58 -9 -77 -20z"/>
</g>
</svg>
